Run_20002
nRows=4
nColumns=173

# SIMM Motion File Header:
name Run_20002
datacolumns 173
datarows 4
otherdata 1
range 4.33000000 4.36000000
endheader
time	pelvis_tilt	pelvis_list	pelvis_rotation	pelvis_tx	pelvis_ty	pelvis_tz	hip_flexion_r	hip_adduction_r	hip_rotation_r	knee_angle_r	ankle_angle_r	hip_flexion_l	hip_adduction_l	hip_rotation_l	knee_angle_l	ankle_angle_l	lumbar_extension	lumbar_bending	lumbar_rotation	arm_flex_r	arm_add_r	arm_rot_r	elbow_flex_r	pro_sup_r	arm_flex_l	arm_add_l	arm_rot_l	elbow_flex_l	pro_sup_l	subtalar_angle_r	mtp_angle_r	subtalar_angle_l	mtp_angle_l	wrist_flex_r	wrist_dev_r	wrist_flex_l	wrist_dev_l	LASI_tx	LASI_ty	LASI_tz	RASI_tx	RASI_ty	RASI_tz	LPSI_tx	LPSI_ty	LPSI_tz	RPSI_tx	RPSI_ty	RPSI_tz	RTH1_tx	RTH1_ty	RTH1_tz	RTH2_tx	RTH2_ty	RTH2_tz	RTH3_tx	RTH3_ty	RTH3_tz	LTH1_tx	LTH1_ty	LTH1_tz	LTH2_tx	LTH2_ty	LTH2_tz	LTH3_tx	LTH3_ty	LTH3_tz	RTB1_tx	RTB1_ty	RTB1_tz	RTB2_tx	RTB2_ty	RTB2_tz	RTB3_tx	RTB3_ty	RTB3_tz	RLMAL_tx	RLMAL_ty	RLMAL_tz	RMMAL_tx	RMMAL_ty	RMMAL_tz	LTB1_tx	LTB1_ty	LTB1_tz	LTB2_tx	LTB2_ty	LTB2_tz	LTB3_tx	LTB3_ty	LTB3_tz	RCAL_tx	RCAL_ty	RCAL_tz	RTOE_tx	RTOE_ty	RTOE_tz	RMT5_tx	RMT5_ty	RMT5_tz	LCAL_tx	LCAL_ty	LCAL_tz	LTOE_tx	LTOE_ty	LTOE_tz	LMT5_tx	LMT5_ty	LMT5_tz	LACR_tx	LACR_ty	LACR_tz	RACR_tx	RACR_ty	RACR_tz	CLAV_tx	CLAV_ty	CLAV_tz	C7_tx	C7_ty	C7_tz	LPSH_tx	LPSH_ty	LPSH_tz	RUA1_tx	RUA1_ty	RUA1_tz	RUA2_tx	RUA2_ty	RUA2_tz	RUA3_tx	RUA3_ty	RUA3_tz	RLEL_tx	RLEL_ty	RLEL_tz	RMEL_tx	RMEL_ty	RMEL_tz	LUA1_tx	LUA1_ty	LUA1_tz	LUA2_tx	LUA2_ty	LUA2_tz	LUA3_tx	LUA3_ty	LUA3_tz	LLEL_tx	LLEL_ty	LLEL_tz	LMEL_tx	LMEL_ty	LMEL_tz	RFAsuperior_tx	RFAsuperior_ty	RFAsuperior_tz	RFAradius_tx	RFAradius_ty	RFAradius_tz	RFAulna_tx	RFAulna_ty	RFAulna_tz	LFAsuperior_tx	LFAsuperior_ty	LFAsuperior_tz	LFAradius_tx	LFAradius_ty	LFAradius_tz	LFAulna_tx	LFAulna_ty	LFAulna_tz
      4.33000000	      0.27702978	      3.46750389	      3.14961853	      1.00505249	      1.02454612	     -0.43589828	      6.24737169	      2.92575779	      9.53710533	    -68.07451860	     -4.07693943	     16.09339776	     10.43202811	     10.43719982	    -27.66598604	     11.19961897	     -8.01766546	     -1.37534819	      8.30188553	    -19.87904224	    -14.40918855	      3.12239231	    112.69962577	     96.81564193	    -40.96630051	    -11.22090098	    -11.40917443	    119.07046726	     80.85499275	      0.00000000	      0.00000000	      0.00000000	      0.00000000	      0.00000000	      0.00000000	      0.00000000	      0.00000000	      1.00579266	      1.06924050	     -0.54700776	      1.02389444	      1.05632822	     -0.31337236	      0.84412268	      1.09032124	     -0.46434934	      0.85213518	      1.08440055	     -0.37512586	      0.95903541	      0.78415675	     -0.27510738	      1.03175319	      0.72070888	     -0.31291022	      0.96680258	      0.61789985	     -0.31291396	      0.94162489	      0.83904485	     -0.59655404	      1.03904752	      0.74845698	     -0.58941524	      1.01029889	      0.64021208	     -0.57411963	      0.89737757	      0.40535790	     -0.34312519	      0.83150256	      0.41453316	     -0.29403833	      0.73309615	      0.32651495	     -0.31882044	      0.61843066	      0.30114604	     -0.28598372	      0.63901595	      0.28923790	     -0.36777885	      1.07284769	      0.41028505	     -0.52949146	      0.97579732	      0.31911110	     -0.54976979	      1.02549576	      0.22534458	     -0.49927355	      0.56776454	      0.33983033	     -0.34357309	      0.64760629	      0.13057108	     -0.33055473	      0.60233880	      0.17872939	     -0.25774051	      0.89630619	      0.08906053	     -0.44698940	      1.12398391	      0.07371905	     -0.45275968	      1.06559798	      0.05421109	     -0.52219539	      0.94537329	      1.56153282	     -0.58067226	      0.99793166	      1.53771835	     -0.26961949	      1.04560367	      1.48181932	     -0.41289078	      0.93445133	      1.57583710	     -0.41879615	      0.86034829	      1.53450094	     -0.57020813	      0.96509478	      1.39136004	     -0.17595856	      0.88402059	      1.34535229	     -0.16887679	      0.89934066	      1.28882924	     -0.12976560	      0.91569154	      1.22051580	     -0.11411642	      0.86020045	      1.21233748	     -0.18308164	      0.82562227	      1.47535916	     -0.62603136	      0.75983272	      1.41875546	     -0.58109621	      0.73321264	      1.38206803	     -0.64144557	      0.69840523	      1.30766191	     -0.66373165	      0.70108095	      1.29640773	     -0.57562064	      0.95888552	      1.16667278	     -0.15640567	      1.09913331	      1.20144119	     -0.29913370	      1.09363081	      1.13571631	     -0.27945128	      0.75810896	      1.22962936	     -0.65169634	      0.93447142	      1.23176869	     -0.64701538	      0.91495536	      1.16621990	     -0.64926369
      4.34000000	      0.01156997	      3.76218991	      3.35505585	      1.00335685	      1.01672159	     -0.43743235	      9.01868282	      2.26853113	      8.51447784	    -71.65729351	     -2.68517083	     16.38624656	     11.17945713	     10.22059257	    -29.97944043	     14.11707025	     -7.82985448	     -1.76467154	      7.32775804	    -20.64117155	    -14.30986384	      1.79221990	    110.11162721	     97.51222545	    -39.09494927	    -11.64620776	    -10.93203557	    117.66377328	     81.12287776	      0.00000000	      0.00000000	      0.00000000	      0.00000000	      0.00000000	      0.00000000	      0.00000000	      0.00000000	      1.00525903	      1.06137540	     -0.54898940	      1.02379011	      1.04869982	     -0.31408674	      0.84281979	      1.08361389	     -0.46566532	      0.85005034	      1.07691313	     -0.37534116	      0.96362127	      0.77789113	     -0.27587086	      1.03982053	      0.71616640	     -0.31111396	      0.97782991	      0.61180717	     -0.31369299	      0.93936955	      0.83213594	     -0.59711338	      1.03494288	      0.73994039	     -0.59108482	      1.00563708	      0.63268658	     -0.57244981	      0.91200084	      0.40330257	     -0.34343270	      0.84586953	      0.41272062	     -0.29484063	      0.74647458	      0.32629651	     -0.32020963	      0.63134256	      0.30319716	     -0.28808159	      0.65229016	      0.29012808	     -0.36949191	      1.06567658	      0.40340344	     -0.52658947	      0.96649501	      0.31477153	     -0.54823293	      1.01142690	      0.22055871	     -0.49586092	      0.58066706	      0.34117140	     -0.34673066	      0.66102628	      0.13254689	     -0.32979023	      0.61549420	      0.18188674	     -0.25803354	      0.87700067	      0.08842006	     -0.44599087	      1.10556827	      0.07229187	     -0.45206093	      1.04639278	      0.05451498	     -0.52155461	      0.94652794	      1.55327360	     -0.58313322	      0.99611339	      1.53002573	     -0.27014309	      1.04596229	      1.47425463	     -0.41353483	      0.93465885	      1.56868923	     -0.42116111	      0.86167680	      1.52434392	     -0.57382692	      0.95943112	      1.38401793	     -0.17630584	      0.87734435	      1.33922892	     -0.17163550	      0.89080803	      1.28325382	     -0.13086794	      0.90588057	      1.21475438	     -0.11357240	      0.85286760	      1.20683611	     -0.18408359	      0.82888033	      1.46275634	     -0.63112603	      0.76301715	      1.40496190	     -0.58810301	      0.73932331	      1.36703758	     -0.64861527	      0.70663820	      1.29274014	     -0.67142407	      0.70760289	      1.28161319	     -0.58329008	      0.94853038	      1.15777801	     -0.15300014	      1.09480701	      1.18147127	     -0.29204643	      1.08628416	      1.11697187	     -0.26940260	      0.76674892	      1.21528815	     -0.65804704	      0.94290047	      1.21884917	     -0.64972132	      0.92398717	      1.15310779	     -0.65292664
      4.35000000	     -0.48409535	      4.11670720	      3.71240135	      1.00168782	      1.00915308	     -0.43932458	     12.02216345	      1.42900756	      7.51205171	    -74.84591797	     -1.39767884	     16.88816091	     12.01661762	     10.12649767	    -32.23889651	     16.49055154	     -7.33838021	     -2.19998730	      6.13957072	    -21.32055186	    -14.17057336	      0.51671654	    107.12075473	     98.31685739	    -37.05592548	    -12.04964777	    -10.40985243	    115.83189657	     81.32483790	      0.00000000	      0.00000000	      0.00000000	      0.00000000	      0.00000000	      0.00000000	      0.00000000	      0.00000000	      1.00464300	      1.05418159	     -0.55052214	      1.02391691	      1.04127387	     -0.31606950	      0.84188518	      1.07770124	     -0.46684384	      0.84899900	      1.07010039	     -0.37609176	      0.96797354	      0.77252261	     -0.27666323	      1.04777400	      0.71271430	     -0.30930044	      0.98917663	      0.60682854	     -0.31384100	      0.93557805	      0.82650986	     -0.59747899	      1.03056090	      0.73308650	     -0.59163145	      1.00058773	      0.62654549	     -0.57089506	      0.92724306	      0.40188201	     -0.34407735	      0.86106536	      0.41080167	     -0.29563522	      0.76114658	      0.32545489	     -0.32168619	      0.64578113	      0.30385767	     -0.29000594	      0.66708408	      0.28988147	     -0.37117910	      1.05840289	      0.39739051	     -0.52466135	      0.95686857	      0.31145240	     -0.54732903	      0.99753238	      0.21679683	     -0.49346278	      0.59484092	      0.34086090	     -0.34970716	      0.67679924	      0.13330621	     -0.32924334	      0.63084972	      0.18353131	     -0.25835731	      0.85822299	      0.08888992	     -0.44515394	      1.08711065	      0.07086142	     -0.45146398	      1.02725614	      0.05468067	     -0.52111075	      0.94773932	      1.54552735	     -0.58551457	      0.99399040	      1.52294508	     -0.27054977	      1.04625000	      1.46738016	     -0.41384024	      0.93503107	      1.56235222	     -0.42336210	      0.86305116	      1.51504184	     -0.57775720	      0.95350597	      1.37697373	     -0.17667120	      0.87050712	      1.33311416	     -0.17462476	      0.88201137	      1.27781086	     -0.13217684	      0.89589233	      1.20921978	     -0.11331527	      0.84544676	      1.20143232	     -0.18532532	      0.83297133	      1.45006087	     -0.63609769	      0.76677421	      1.39091024	     -0.59529954	      0.74633464	      1.35158002	     -0.65584607	      0.71597405	      1.27758936	     -0.67918142	      0.71520765	      1.26637556	     -0.59127978	      0.93780835	      1.14911133	     -0.14977706	      1.08975938	      1.16087628	     -0.28442026	      1.07807471	      1.09804935	     -0.25892742	      0.77649684	      1.20058014	     -0.66435591	      0.95247253	      1.20520866	     -0.65245258	      0.93386026	      1.13940841	     -0.65655346
      4.36000000	     -1.12704514	      4.53153934	      4.02112613	      1.00049265	      1.00224400	     -0.44124574	     15.12214876	      0.46403639	      6.75976598	    -77.56954752	     -0.17464063	     17.41652710	     12.86141263	     10.08551285	    -34.40001263	     18.55738093	     -6.59318419	     -2.71673562	      4.93270922	    -21.93206617	    -13.99610106	     -0.64227166	    103.74625682	     99.34889277	    -34.91117160	    -12.40908155	     -9.85106178	    113.63163852	     81.54942931	      0.00000000	      0.00000000	      0.00000000	      0.00000000	      0.00000000	      0.00000000	      0.00000000	      0.00000000	      1.00448600	      1.04797879	     -0.55144156	      1.02359061	      1.03455603	     -0.31879770	      0.84164371	      1.07272497	     -0.46760254	      0.84972541	      1.06444948	     -0.37765440	      0.97228585	      0.76830603	     -0.27733280	      1.05552163	      0.71069779	     -0.30775358	      1.00079222	      0.60326422	     -0.31349244	      0.93099608	      0.82215245	     -0.59775768	      1.02686265	      0.72832941	     -0.59135105	      0.99664252	      0.62208761	     -0.57061070	      0.94305626	      0.40068365	     -0.34471376	      0.87688849	      0.40916296	     -0.29643789	      0.77702566	      0.32423204	     -0.32288845	      0.66155439	      0.30313225	     -0.29167503	      0.68330254	      0.28858032	     -0.37275966	      1.05073689	      0.39232048	     -0.52383494	      0.94629000	      0.30993484	     -0.54769899	      0.98306222	      0.21415927	     -0.49272985	      0.61006110	      0.33888925	     -0.35232955	      0.69499277	      0.13297170	     -0.32883142	      0.64834761	      0.18362241	     -0.25859283	      0.83892112	      0.08936399	     -0.44486618	      1.06782953	      0.06991950	     -0.45129671	      1.00765922	      0.05460734	     -0.52105439	      0.94923473	      1.53849436	     -0.58772156	      0.99171843	      1.51687697	     -0.27084355	      1.04645437	      1.46151285	     -0.41381927	      0.93545208	      1.55698613	     -0.42524044	      0.86476302	      1.50705382	     -0.58186539	      0.94747490	      1.37085409	     -0.17710575	      0.86366513	      1.32751571	     -0.17783319	      0.87316289	      1.27292540	     -0.13381909	      0.88599383	      1.20438324	     -0.11356430	      0.83811398	      1.19634036	     -0.18693300	      0.83798794	      1.43782461	     -0.64051884	      0.77108139	      1.37708064	     -0.60240654	      0.75437199	      1.33625419	     -0.66309287	      0.72683309	      1.26261294	     -0.68694757	      0.72406013	      1.25103924	     -0.59934810	      0.92689242	      1.14116044	     -0.14686474	      1.08379495	      1.14007224	     -0.27656615	      1.06893192	      1.07936300	     -0.24833455	      0.78754230	      1.18605036	     -0.67052078	      0.96330547	      1.19141158	     -0.65497026	      0.94479927	      1.12564095	     -0.65997259
